<svg version="1.1" id="Layer_1" xmlns="http://www.w3.org/2000/svg" xmlns:xlink="http://www.w3.org/1999/xlink" x="0px" y="0px"
	 width="100%" viewBox="0 0 612 612" enable-background="new 0 0 612 612" xml:space="preserve">
<path fill="#FFFFFF" opacity="1.000000" stroke="none" 
	d="
M406.000000,613.000000 
	C270.666687,613.000000 135.833374,613.000000 1.000054,613.000000 
	C1.000036,409.000061 1.000036,205.000122 1.000018,1.000136 
	C204.999893,1.000091 408.999786,1.000091 612.999756,1.000046 
	C612.999878,204.999863 612.999878,408.999725 612.999939,612.999756 
	C544.166687,613.000000 475.333344,613.000000 406.000000,613.000000 
M466.771088,193.842285 
	C467.515228,192.202438 468.716797,190.620346 468.932251,188.913742 
	C470.933289,173.064499 472.776733,157.195251 474.641083,141.328873 
	C476.048950,129.347198 477.420532,117.361259 478.830414,105.186272 
	C363.020782,105.186272 247.672150,105.186272 131.929092,105.186272 
	C135.427109,134.773407 138.892670,164.085953 142.367661,193.478256 
	C144.594528,193.693420 146.385727,193.866486 148.212082,194.858673 
	C153.081192,234.093445 157.950302,273.328217 162.874481,313.006775 
	C160.859085,313.351990 159.276855,313.658356 157.683777,313.890381 
	C144.031860,315.878723 134.735229,323.636322 130.205902,336.337708 
	C126.090851,347.877380 127.971817,359.104431 135.792633,368.759918 
	C143.729706,378.558899 154.251831,382.515198 166.786194,381.046326 
	C169.448624,380.734314 171.506149,380.631500 171.928802,384.407532 
	C174.075058,403.582275 176.480392,422.727966 177.899872,441.951263 
	C170.637726,441.951263 163.375595,441.951263 155.702850,441.951263 
	C155.702850,434.767273 155.702850,428.180847 155.702850,421.504150 
	C146.742065,421.504150 138.210541,421.504150 129.685699,421.504150 
	C129.685699,442.858093 129.685699,463.876617 129.685699,484.717407 
	C138.596497,484.717407 147.144028,484.717407 156.002075,484.717407 
	C156.002075,477.857849 156.002075,471.424561 156.002075,464.608002 
	C164.762466,464.608002 173.200500,464.608002 181.865906,465.492004 
	C183.643936,479.819489 185.421982,494.146973 187.213730,508.584961 
	C267.261902,508.584961 346.921234,508.584961 426.654755,508.584961 
	C428.556335,493.674011 430.407074,479.161957 433.145386,464.620392 
	C441.385193,464.620392 449.625000,464.620392 458.337250,464.620392 
	C458.337250,471.828308 458.337250,478.395782 458.337250,484.907043 
	C467.264771,484.907043 475.699799,484.907043 484.291931,484.907043 
	C484.291931,463.604187 484.291931,442.555054 484.291931,421.571716 
	C475.416138,421.571716 466.878479,421.571716 457.919220,421.571716 
	C457.919220,428.558502 457.919220,435.135345 457.919220,441.926758 
	C450.019196,441.926758 442.553253,441.926758 435.164307,441.096985 
	C435.947815,434.694427 436.766205,428.295898 437.507568,421.888458 
	C439.007690,408.922791 440.466064,395.952271 442.161682,382.368439 
	C442.210297,381.936371 442.258911,381.504303 442.905670,380.964569 
	C443.257599,380.766693 443.609558,380.568848 444.757202,380.711823 
	C464.915802,383.851257 480.627197,373.279785 485.127014,353.548889 
	C488.891541,337.042114 477.840485,319.648590 460.346222,314.692047 
	C457.369324,313.848633 454.278625,313.406860 451.258392,312.783203 
	C451.487152,309.607422 451.687866,306.820526 452.082764,303.375153 
	C452.064423,302.920990 452.046082,302.466797 452.456909,301.348145 
	C453.902466,289.233795 455.347992,277.119415 457.052094,264.195984 
	C458.067474,256.288177 459.088745,248.381149 460.096954,240.472427 
	C462.071198,224.985718 464.038116,209.498093 466.771088,193.842285 
z"/>
<path fill="#8DC541" opacity="1.000000" stroke="none" 
	d="
M452.027710,302.012634 
	C452.046082,302.466797 452.064423,302.920990 451.713593,303.933777 
	C447.430908,310.576263 447.987213,318.220886 452.375122,321.117188 
	C451.895874,322.734772 451.625824,324.381500 450.916656,325.810333 
	C450.334778,326.982727 449.423248,328.361023 448.314972,328.819763 
	C446.453552,329.590210 444.319702,329.702637 442.300507,330.091919 
	C443.473419,331.836365 444.667664,333.567169 445.801758,335.336517 
	C446.036285,335.702393 446.047028,336.211670 446.163239,336.663849 
	C444.470093,336.977509 442.898102,337.268738 441.019531,337.616760 
	C441.361603,340.793274 439.548035,344.217468 443.940643,345.809418 
	C444.497864,346.011353 444.929138,347.561707 444.825714,348.415558 
	C444.331512,352.496155 443.735229,356.571625 442.961212,360.607880 
	C442.602509,362.478271 441.061798,364.336273 441.263214,366.058838 
	C441.825623,370.868958 443.017883,375.605438 443.961487,380.370972 
	C443.609558,380.568848 443.257599,380.766693 442.335999,381.100128 
	C441.824799,381.818390 441.883209,382.401062 441.941650,382.983765 
	C440.466064,395.952271 439.007690,408.922791 437.507568,421.888458 
	C436.766205,428.295898 435.947815,434.694427 435.055573,441.930176 
	C434.050476,450.058868 433.154144,457.354370 432.257782,464.649872 
	C430.407074,479.161957 428.556335,493.674011 426.654755,508.584961 
	C346.921234,508.584961 267.261902,508.584961 187.213730,508.584961 
	C185.421982,494.146973 183.643936,479.819489 181.734314,464.656372 
	C180.666809,456.508453 179.730881,449.196136 178.794952,441.883850 
	C176.480392,422.727966 174.075058,403.582275 171.928802,384.407532 
	C171.506149,380.631500 169.448624,380.734314 166.786194,381.046326 
	C154.251831,382.515198 143.729706,378.558899 135.792633,368.759918 
	C127.971817,359.104431 126.090851,347.877380 130.205902,336.337708 
	C134.735229,323.636322 144.031860,315.878723 157.683777,313.890381 
	C159.276855,313.658356 160.859085,313.351990 162.874481,313.006775 
	C157.950302,273.328217 153.081192,234.093445 148.624451,194.343475 
	C150.036469,193.823166 151.065918,193.658859 152.030807,193.839417 
	C157.358902,194.836502 160.028336,192.774094 160.403915,187.271378 
	C160.594467,184.479660 161.524857,181.737152 162.135422,178.975647 
	C164.184677,169.707214 166.240509,160.440231 168.293823,151.172714 
	C175.229538,163.607941 181.087036,176.062775 187.005859,188.488388 
	C188.152466,190.895493 188.435318,194.146530 192.486572,193.856018 
	C196.362747,193.578049 199.916122,194.415054 202.650497,189.731476 
	C209.086533,178.707443 216.422073,168.208572 223.716019,157.002014 
	C224.430542,158.592331 224.948120,159.588837 225.336700,160.633347 
	C229.046463,170.605301 232.631485,180.626129 236.544510,190.517303 
	C237.102829,191.928558 239.105057,193.182404 240.672638,193.574066 
	C241.287903,193.727783 243.097321,191.433929 243.403290,190.043564 
	C244.223236,186.317474 244.499100,182.473648 245.036652,178.683044 
	C246.325500,169.594559 247.640488,160.509796 248.944916,151.423523 
	C255.899063,163.947937 261.735168,176.610916 267.852264,189.136673 
	C268.773468,191.023010 270.779907,193.118149 272.682404,193.626282 
	C276.193176,194.563995 276.228394,191.027817 276.996552,188.821793 
	C281.454376,176.019424 285.860138,163.198914 290.510071,149.728226 
	C291.583527,151.120743 292.212677,151.843887 292.740021,152.634872 
	C300.963104,164.968353 309.492310,177.115265 317.222229,189.750961 
	C320.144470,194.527847 323.986023,194.335434 327.832428,193.539322 
	C329.532532,193.187454 331.209747,190.081497 331.895630,187.909500 
	C335.826477,175.461792 339.456299,162.919037 343.389160,149.735123 
	C344.645599,151.235062 345.408203,152.062363 346.078796,152.958511 
	C355.158020,165.091537 364.197418,177.254456 373.304382,189.366592 
	C378.644409,196.468689 385.782166,195.876694 389.837128,188.194870 
	C393.901398,180.495316 398.140717,172.888168 402.553314,164.781311 
	C405.769623,168.960007 408.481476,172.483261 411.458618,176.351196 
	C416.549164,169.741302 421.365723,163.487152 426.545319,156.761612 
	C432.373505,168.133270 437.955231,178.727783 443.221771,189.476746 
	C444.843719,192.787033 446.835876,194.100906 450.537903,193.903442 
	C455.678070,193.629288 460.849854,193.946701 466.008087,194.010849 
	C464.038116,209.498093 462.071198,224.985718 460.096954,240.472427 
	C459.088745,248.381149 458.067474,256.288177 456.615051,264.658203 
	C454.562683,265.620087 452.947388,266.119751 451.332092,266.619446 
	C450.852264,266.490204 450.372406,266.360931 449.892578,266.231689 
	C449.892578,271.693909 450.634979,277.285950 449.707855,282.585999 
	C448.502411,289.477234 448.774994,295.827606 452.027710,302.012634 
M381.944000,415.956116 
	C381.944000,410.738831 381.944000,405.521576 381.944000,399.886780 
	C376.087921,399.886780 370.984894,399.697693 365.918121,400.042328 
	C364.874176,400.113342 363.209717,402.124786 363.129913,403.327972 
	C362.835815,407.761414 363.087219,412.231018 362.295685,416.770996 
	C340.535736,416.519531 318.776276,416.159515 297.015625,416.053528 
	C281.742004,415.979126 266.466675,416.250916 251.004044,415.386902 
	C251.004044,410.346313 251.004044,405.305725 251.004044,399.916321 
	C245.349487,399.916321 240.575424,400.081146 235.819458,399.858887 
	C232.604019,399.708588 231.882416,401.133820 231.993896,403.981384 
	C232.161621,408.265503 232.045731,412.560699 231.143372,416.953278 
	C226.761200,417.287323 222.379013,417.621368 217.996841,417.955414 
	C218.014969,418.186310 218.033081,418.417206 218.051208,418.648102 
	C225.779953,418.648102 233.508698,418.648102 242.142181,418.683624 
	C284.405060,418.649780 326.667908,418.615967 369.837860,418.878387 
	C378.132111,418.878387 386.426392,418.878387 394.720642,418.878387 
	C394.726898,418.632812 394.733154,418.387268 394.739410,418.141693 
	C390.485809,417.719879 386.232208,417.298096 381.944000,415.956116 
M409.757416,285.269043 
	C413.348907,285.269043 416.940430,285.269043 420.469330,285.269043 
	C420.469330,278.481445 420.469330,272.595642 420.469330,266.696167 
	C387.852264,266.696167 355.637024,266.696167 323.440002,266.696167 
	C323.440002,272.990875 323.440002,278.901306 323.440002,285.462921 
	C328.257416,285.462921 332.728210,285.462921 337.080963,286.106476 
	C336.116791,287.010071 335.147980,287.908844 334.189117,288.818024 
	C324.607758,297.902924 324.586517,309.861176 334.177521,318.973877 
	C340.789093,325.255737 348.904755,328.581848 357.670868,330.324493 
	C374.015137,333.573730 389.812988,332.276093 404.485809,323.691864 
	C418.534027,315.473114 423.691315,300.068939 409.574158,287.643677 
	C409.089539,287.217133 409.078705,286.252350 409.757416,285.269043 
M277.686707,285.275146 
	C281.940399,285.275146 286.194092,285.275146 290.545166,285.275146 
	C290.545166,278.568451 290.545166,272.691223 290.545166,266.766724 
	C257.935242,266.766724 225.651215,266.766724 193.489532,266.766724 
	C193.489532,273.099976 193.489532,279.000031 193.489532,284.923828 
	C197.665924,285.153534 201.458725,285.362122 205.342773,286.251617 
	C204.806335,286.876587 204.315781,287.548920 203.726669,288.119507 
	C193.377502,298.143829 193.482285,309.910431 204.022049,319.750641 
	C221.885696,336.428680 262.968597,335.796631 280.192657,318.578796 
	C288.744965,310.029572 289.168945,299.008972 281.239716,290.061005 
	C279.835388,288.476227 278.251160,287.050842 277.686707,285.275146 
M368.618835,472.981354 
	C370.404999,472.166779 372.191162,471.352203 374.287750,470.396088 
	C375.629059,472.763519 376.674866,475.037994 378.146088,476.992218 
	C378.723724,477.759521 380.253571,477.809967 381.349854,478.186829 
	C381.556488,477.048676 382.250061,475.705627 381.874268,474.812531 
	C380.924103,472.554352 379.493225,470.498383 378.122589,468.132996 
	C381.361267,465.897339 384.419708,463.786102 387.570099,461.611359 
	C389.464203,463.944366 390.880493,466.035583 392.678345,467.719421 
	C393.326843,468.326843 394.891205,467.956360 396.037628,468.032135 
	C396.064972,467.004639 396.511444,465.691711 396.042053,465.002533 
	C394.564545,462.833038 392.743134,460.897797 390.932648,458.725250 
	C393.927155,455.946991 396.657959,453.413391 399.424835,450.846344 
	C401.535065,452.739075 403.143219,454.474121 405.054230,455.758606 
	C405.874878,456.310181 407.324402,455.926147 408.488190,455.967194 
	C408.332397,454.797546 408.590790,453.257629 407.940369,452.530151 
	C406.230713,450.617859 404.125519,449.059143 402.170563,447.353210 
	C404.619934,444.091187 406.799774,441.188141 409.138367,438.073669 
	C411.387054,439.482422 413.380005,440.978577 415.592682,441.997284 
	C416.499084,442.414581 417.880310,441.800476 419.045532,441.655579 
	C418.616882,440.456665 418.530304,438.853577 417.689362,438.141815 
	C415.858337,436.592133 413.642853,435.496674 411.516083,434.173004 
	C413.392181,430.427277 415.007446,427.202301 416.801300,423.620789 
	C418.882477,424.507355 420.631866,425.580750 422.519379,425.952087 
	C424.010284,426.245361 425.670990,425.675537 427.256287,425.489044 
	C426.319061,424.263641 425.605225,422.703308 424.390900,421.893341 
	C422.681396,420.753021 420.600830,420.169037 418.713562,419.361938 
	C419.482788,413.257416 423.094360,408.025543 422.029907,402.130188 
	C421.434662,401.961456 420.839386,401.792725 420.244141,401.623962 
	C418.557190,407.084778 416.870270,412.545563 415.109589,418.245117 
	C412.571777,417.317444 410.605652,416.411957 408.540710,415.930450 
	C407.641144,415.720642 406.538696,416.380676 405.528412,416.645630 
	C406.009521,417.557770 406.260559,418.847046 407.016693,419.308258 
	C408.952698,420.489075 411.113403,421.301544 413.611725,422.459412 
	C411.811798,425.943298 410.236694,428.992035 408.475098,432.401733 
	C406.146454,431.110443 404.189087,429.873657 402.094604,428.946686 
	C401.373566,428.627594 400.310455,429.081360 399.403625,429.182068 
	C399.659088,430.178436 399.592926,431.546539 400.232025,432.099457 
	C401.952393,433.587952 403.973755,434.728577 406.146606,436.189484 
	C403.881958,439.291656 401.849152,442.076263 399.637817,445.105377 
	C397.821716,443.672455 396.397522,442.240234 394.696533,441.319458 
	C393.631653,440.743042 392.150146,440.936249 390.855560,440.784119 
	C391.253754,441.894836 391.397888,443.216553 392.106293,444.069702 
	C393.347382,445.564362 394.934662,446.771637 396.317047,448.044189 
	C393.611206,450.838593 391.229553,453.298157 388.858490,455.746796 
	C382.623322,449.899658 382.623322,449.899658 380.094330,451.508270 
	C381.758087,453.895050 383.416779,456.274567 385.273956,458.938873 
	C382.067749,461.092072 379.239807,462.991211 376.423981,464.882202 
	C371.938904,458.455780 371.938904,458.455780 368.582306,458.502747 
	C369.835510,461.511475 370.999176,464.305176 372.318085,467.471680 
	C368.982574,468.944977 365.898438,470.307251 362.529053,471.795532 
	C361.450317,469.155884 360.769897,467.100311 359.759644,465.222168 
	C359.385376,464.526367 358.236450,464.247253 357.440826,463.778107 
	C357.039368,464.720612 356.166931,465.753845 356.327576,466.588104 
	C356.754456,468.804688 357.627075,470.935425 358.429260,473.433075 
	C354.594879,474.492584 351.299988,475.403046 347.763214,476.380341 
	C347.183533,474.112122 346.923370,472.294708 346.232483,470.659241 
	C345.735565,469.483032 344.663940,468.549652 343.848694,467.507935 
	C343.438965,468.733429 342.738495,469.946869 342.686920,471.187256 
	C342.607574,473.094696 342.973785,475.020660 343.193756,477.402100 
	C339.186493,477.703400 335.799561,477.958038 332.171234,478.230865 
	C331.992859,475.397614 332.051758,473.225861 331.629395,471.152161 
	C331.460327,470.322174 330.231293,469.708038 329.484741,468.995667 
	C328.965881,469.737732 328.077606,470.443085 327.999481,471.228973 
	C327.790222,473.334015 327.928162,475.473541 327.928162,478.420471 
	C322.572083,478.420471 317.738983,478.420471 312.905853,478.420471 
	C312.898346,479.024261 312.890839,479.628052 312.883301,480.231873 
	C317.706238,480.875793 322.529205,481.519745 327.845764,482.229584 
	C327.845764,484.676086 327.642670,487.001007 327.937958,489.260773 
	C328.070465,490.274841 329.200378,491.158569 329.877716,492.101440 
	C330.650269,491.092621 331.919769,490.160980 332.091064,489.058746 
	C332.439545,486.816071 332.195343,484.481262 332.195343,481.901123 
	C336.324921,481.496979 340.060211,481.131409 343.934387,480.752258 
	C344.393799,483.144806 344.475525,485.040710 345.159515,486.686279 
	C345.749359,488.105255 347.024933,489.239166 347.997314,490.499115 
	C348.545166,489.024658 349.904541,487.261993 349.500885,486.125488 
	C347.719543,481.110199 349.227722,478.617920 354.454224,478.056976 
	C356.072662,477.883270 357.648865,477.316345 359.605530,476.841919 
	C360.423615,478.980835 360.965332,481.096863 362.022919,482.912354 
	C362.709869,484.091614 364.148895,484.832703 365.251007,485.770081 
	C365.562408,484.386597 366.312592,482.925690 366.085297,481.637268 
	C365.718658,479.559113 364.707977,477.594604 363.878143,475.333557 
	C365.318085,474.604614 366.617767,473.946655 368.618835,472.981354 
M245.217529,207.082047 
	C244.994598,209.029099 244.771667,210.976151 244.515274,213.215485 
	C241.698120,213.215485 239.139511,213.215485 236.308289,213.215485 
	C236.141830,211.713562 236.183884,210.358459 235.794983,209.141052 
	C235.492157,208.193130 234.652786,207.416611 234.051895,206.563919 
	C233.516708,207.557343 232.658936,208.509705 232.525955,209.554321 
	C232.350037,210.936478 232.741348,212.390839 232.903854,213.958878 
	C230.067200,214.566315 227.679428,215.077637 225.513382,215.541473 
	C224.120605,213.081833 222.899445,210.925293 221.678299,208.768738 
	C221.118927,209.082123 220.559540,209.395508 220.000168,209.708893 
	C220.539429,212.006546 221.078674,214.304199 221.641052,216.700378 
	C219.093094,217.597351 216.789948,218.408142 214.561951,219.192490 
	C212.992126,216.963135 211.609695,214.999924 210.227280,213.036697 
	C209.696289,213.287979 209.165298,213.539261 208.634293,213.790543 
	C209.340927,216.245087 210.047546,218.699631 210.770142,221.209595 
	C208.501694,222.503494 206.396408,223.704330 204.703003,224.670212 
	C202.550537,222.755112 200.800049,221.197647 199.049561,219.640198 
	C198.599655,220.102097 198.149765,220.563995 197.699860,221.025894 
	C198.869629,222.909775 200.039413,224.793655 201.403717,226.990845 
	C199.287323,228.762894 197.326721,230.404495 195.478745,231.951797 
	C193.294296,230.163300 191.488358,228.684708 189.682419,227.206116 
	C189.155304,227.661453 188.628174,228.116791 188.101059,228.572128 
	C189.568802,230.589218 191.036545,232.606323 192.657700,234.834229 
	C191.064667,236.669373 189.368652,238.623154 187.966995,240.237823 
	C185.146408,239.030090 182.955856,238.092133 180.765305,237.154160 
	C180.468262,237.743271 180.171219,238.332382 179.874191,238.921478 
	C181.691101,240.472198 183.508026,242.022903 185.475388,243.702011 
	C184.105087,246.007385 182.842590,248.131393 181.399475,250.559265 
	C179.712540,249.792511 178.273926,248.965561 176.726028,248.509201 
	C175.969772,248.286224 175.010071,248.753326 174.142456,248.908112 
	C174.468079,249.743988 174.560089,250.880051 175.168015,251.353180 
	C176.427719,252.333527 177.961578,252.961594 179.390915,253.738968 
	C178.479324,257.340027 177.646637,260.629395 176.813950,263.918762 
	C177.352859,264.077271 177.891754,264.235779 178.430649,264.394287 
	C179.705902,261.289856 180.981140,258.185455 182.244614,255.109665 
	C184.626617,255.810654 186.656006,256.407867 188.685394,257.005096 
	C188.912064,256.507721 189.138733,256.010345 189.365402,255.512955 
	C187.626801,254.276138 185.888184,253.039337 183.879990,251.610748 
	C185.166702,249.418198 186.392242,247.329865 187.577011,245.311050 
	C189.997696,246.308426 192.023804,247.143219 194.049911,247.978027 
	C194.259232,247.579376 194.468567,247.180710 194.677887,246.782059 
	C193.179962,245.349106 191.682037,243.916138 189.868668,242.181412 
	C191.411163,240.361328 192.966644,238.525940 194.506699,236.708725 
	C196.698013,238.075760 198.480682,239.187866 200.263336,240.299957 
	C200.567368,239.947556 200.871399,239.595169 201.175430,239.242767 
	C200.026993,237.594772 198.878571,235.946777 197.400879,233.826279 
	C199.286728,232.335938 201.149216,230.864044 203.637436,228.897659 
	C204.954239,231.125320 206.015091,232.919968 207.075928,234.714615 
	C207.682236,234.265198 208.288544,233.815796 208.894852,233.366394 
	C207.979828,231.367935 207.064819,229.369476 206.006729,227.058533 
	C208.127899,225.807159 210.075470,224.658203 212.082092,223.474411 
	C213.589767,225.577789 214.831116,227.309586 216.072449,229.041382 
	C216.505173,228.832550 216.937897,228.623718 217.370621,228.414886 
	C216.829971,226.343430 216.289307,224.271988 215.654343,221.839142 
	C217.992050,220.896210 220.104965,220.043930 222.155716,219.216751 
	C223.382706,221.444321 224.446625,223.375870 225.510559,225.307419 
	C225.939392,225.128418 226.368225,224.949417 226.797058,224.770416 
	C226.522049,222.738113 226.247040,220.705811 225.909592,218.211975 
	C228.365173,217.738495 230.707596,217.286835 232.916519,216.860916 
	C233.808044,219.342178 234.498123,221.262817 235.188202,223.183441 
	C235.627640,223.083801 236.067093,222.984146 236.506531,222.884506 
	C236.700180,220.736847 236.893814,218.589188 237.088196,216.433273 
	C239.675034,216.433273 241.886612,216.433273 243.944153,216.433273 
	C244.472321,218.877838 244.907974,220.894165 245.343628,222.910492 
	C245.752533,222.869492 246.161438,222.828491 246.570328,222.787506 
	C247.156311,220.646378 247.742310,218.505264 248.331848,216.351135 
	C252.418213,216.893372 256.248657,217.401657 260.079102,217.909927 
	C260.159180,217.269623 260.239258,216.629318 260.319336,215.989014 
	C256.366943,215.126068 252.414551,214.263107 248.166031,213.335495 
	C248.166031,211.740829 248.428833,210.045212 248.059692,208.500610 
	C247.863098,207.678024 246.573257,207.116714 245.217529,207.082047 
M166.312851,363.016541 
	C170.678314,362.646545 168.856827,359.376465 168.653091,357.351105 
	C167.958252,350.443207 166.801514,343.583130 166.004578,336.683624 
	C165.446716,331.853790 164.325974,331.052338 159.555878,332.666901 
	C151.893845,335.260284 147.917160,342.166382 149.116180,350.796967 
	C150.116653,357.998474 156.652054,362.904633 166.312851,363.016541 
M441.482910,362.587524 
	C441.482910,362.587524 441.416809,362.476776 441.482910,362.587524 
M441.482758,379.587982 
	C441.482758,379.587982 441.416565,379.476868 441.482758,379.587982 
z"/>
<path fill="#020302" opacity="1.000000" stroke="none" 
	d="
M466.389587,193.926575 
	C460.849854,193.946701 455.678070,193.629288 450.537903,193.903442 
	C446.835876,194.100906 444.843719,192.787033 443.221771,189.476746 
	C437.955231,178.727783 432.373505,168.133270 426.545319,156.761612 
	C421.365723,163.487152 416.549164,169.741302 411.458618,176.351196 
	C408.481476,172.483261 405.769623,168.960007 402.553314,164.781311 
	C398.140717,172.888168 393.901398,180.495316 389.837128,188.194870 
	C385.782166,195.876694 378.644409,196.468689 373.304382,189.366592 
	C364.197418,177.254456 355.158020,165.091537 346.078796,152.958511 
	C345.408203,152.062363 344.645599,151.235062 343.389160,149.735123 
	C339.456299,162.919037 335.826477,175.461792 331.895630,187.909500 
	C331.209747,190.081497 329.532532,193.187454 327.832428,193.539322 
	C323.986023,194.335434 320.144470,194.527847 317.222229,189.750961 
	C309.492310,177.115265 300.963104,164.968353 292.740021,152.634872 
	C292.212677,151.843887 291.583527,151.120743 290.510071,149.728226 
	C285.860138,163.198914 281.454376,176.019424 276.996552,188.821793 
	C276.228394,191.027817 276.193176,194.563995 272.682404,193.626282 
	C270.779907,193.118149 268.773468,191.023010 267.852264,189.136673 
	C261.735168,176.610916 255.899063,163.947937 248.944916,151.423523 
	C247.640488,160.509796 246.325500,169.594559 245.036652,178.683044 
	C244.499100,182.473648 244.223236,186.317474 243.403290,190.043564 
	C243.097321,191.433929 241.287903,193.727783 240.672638,193.574066 
	C239.105057,193.182404 237.102829,191.928558 236.544510,190.517303 
	C232.631485,180.626129 229.046463,170.605301 225.336700,160.633347 
	C224.948120,159.588837 224.430542,158.592331 223.716019,157.002014 
	C216.422073,168.208572 209.086533,178.707443 202.650497,189.731476 
	C199.916122,194.415054 196.362747,193.578049 192.486572,193.856018 
	C188.435318,194.146530 188.152466,190.895493 187.005859,188.488388 
	C181.087036,176.062775 175.229538,163.607941 168.293823,151.172714 
	C166.240509,160.440231 164.184677,169.707214 162.135422,178.975647 
	C161.524857,181.737152 160.594467,184.479660 160.403915,187.271378 
	C160.028336,192.774094 157.358902,194.836502 152.030807,193.839417 
	C151.065918,193.658859 150.036469,193.823166 148.606873,193.933914 
	C146.385727,193.866486 144.594528,193.693420 142.367661,193.478256 
	C138.892670,164.085953 135.427109,134.773407 131.929092,105.186272 
	C247.672150,105.186272 363.020782,105.186272 478.830414,105.186272 
	C477.420532,117.361259 476.048950,129.347198 474.641083,141.328873 
	C472.776733,157.195251 470.933289,173.064499 468.932251,188.913742 
	C468.716797,190.620346 467.515228,192.202438 466.389587,193.926575 
z"/>
<path fill="#070707" opacity="1.000000" stroke="none" 
	d="
M432.701599,464.635132 
	C433.154144,457.354370 434.050476,450.058868 435.017090,442.345062 
	C442.553253,441.926758 450.019196,441.926758 457.919220,441.926758 
	C457.919220,435.135345 457.919220,428.558502 457.919220,421.571716 
	C466.878479,421.571716 475.416138,421.571716 484.291931,421.571716 
	C484.291931,442.555054 484.291931,463.604187 484.291931,484.907043 
	C475.699799,484.907043 467.264771,484.907043 458.337250,484.907043 
	C458.337250,478.395782 458.337250,471.828308 458.337250,464.620392 
	C449.625000,464.620392 441.385193,464.620392 432.701599,464.635132 
z"/>
<path fill="#060706" opacity="1.000000" stroke="none" 
	d="
M178.347412,441.917542 
	C179.730881,449.196136 180.666809,456.508453 181.620636,464.214355 
	C173.200500,464.608002 164.762466,464.608002 156.002075,464.608002 
	C156.002075,471.424561 156.002075,477.857849 156.002075,484.717407 
	C147.144028,484.717407 138.596497,484.717407 129.685699,484.717407 
	C129.685699,463.876617 129.685699,442.858093 129.685699,421.504150 
	C138.210541,421.504150 146.742065,421.504150 155.702850,421.504150 
	C155.702850,428.180847 155.702850,434.767273 155.702850,441.951263 
	C163.375595,441.951263 170.637726,441.951263 178.347412,441.917542 
z"/>
<path fill="#8BC441" opacity="1.000000" stroke="none" 
	d="
M444.359344,380.541382 
	C443.017883,375.605438 441.825623,370.868958 441.263214,366.058838 
	C441.061798,364.336273 442.602509,362.478271 442.961212,360.607880 
	C443.735229,356.571625 444.331512,352.496155 444.825714,348.415558 
	C444.929138,347.561707 444.497864,346.011353 443.940643,345.809418 
	C439.548035,344.217468 441.361603,340.793274 441.019531,337.616760 
	C442.898102,337.268738 444.470093,336.977509 446.163239,336.663849 
	C446.047028,336.211670 446.036285,335.702393 445.801758,335.336517 
	C444.667664,333.567169 443.473419,331.836365 442.300507,330.091919 
	C444.319702,329.702637 446.453552,329.590210 448.314972,328.819763 
	C449.423248,328.361023 450.334778,326.982727 450.916656,325.810333 
	C451.625824,324.381500 451.895874,322.734772 452.375122,321.117188 
	C447.987213,318.220886 447.430908,310.576263 451.616516,304.263000 
	C451.687866,306.820526 451.487152,309.607422 451.258392,312.783203 
	C454.278625,313.406860 457.369324,313.848633 460.346222,314.692047 
	C477.840485,319.648590 488.891541,337.042114 485.127014,353.548889 
	C480.627197,373.279785 464.915802,383.851257 444.359344,380.541382 
M448.883820,363.116638 
	C457.531982,362.655792 464.082458,357.202576 464.924744,349.762787 
	C465.834473,341.727386 461.279053,334.714539 453.926178,332.447235 
	C450.068329,331.257568 448.395081,332.489227 447.974976,336.438324 
	C447.469482,341.189941 446.340576,345.881897 445.958740,350.637970 
	C445.628052,354.756989 445.964020,358.929504 446.081970,363.665039 
	C446.677460,364.069824 447.272949,364.474579 447.868439,364.879364 
	C447.932983,364.342255 447.997528,363.805176 448.883820,363.116638 
z"/>
<path fill="#8BC441" opacity="1.000000" stroke="none" 
	d="
M452.242310,301.680389 
	C448.774994,295.827606 448.502411,289.477234 449.707855,282.585999 
	C450.634979,277.285950 449.892578,271.693909 449.892578,266.231689 
	C450.372406,266.360931 450.852264,266.490204 451.332092,266.619446 
	C452.947388,266.119751 454.562683,265.620087 456.485779,265.062744 
	C455.347992,277.119415 453.902466,289.233795 452.242310,301.680389 
M452.821686,279.970306 
	C452.726501,279.564178 452.631348,279.158051 452.536194,278.751953 
	C452.415527,278.841003 452.182800,278.945496 452.192596,279.016541 
	C452.249451,279.428802 452.363403,279.833221 452.821686,279.970306 
z"/>
<path fill="#8BC441" opacity="1.000000" stroke="none" 
	d="
M442.051636,382.676086 
	C441.883209,382.401062 441.824799,381.818390 442.036926,381.153961 
	C442.258911,381.504303 442.210297,381.936371 442.051636,382.676086 
z"/>
<path fill="#FBFBF9" opacity="1.000000" stroke="none" 
	d="
M276.750031,285.551819 
	C278.251160,287.050842 279.835388,288.476227 281.239716,290.061005 
	C289.168945,299.008972 288.744965,310.029572 280.192657,318.578796 
	C262.968597,335.796631 221.885696,336.428680 204.022049,319.750641 
	C193.482285,309.910431 193.377502,298.143829 203.726669,288.119507 
	C204.315781,287.548920 204.806335,286.876587 205.746246,285.914795 
	C214.100113,285.443604 222.050751,285.183655 230.000793,285.201477 
	C245.584045,285.236420 261.166962,285.426147 276.750031,285.551819 
M243.946884,293.070404 
	C236.771210,292.715332 232.271423,295.489014 230.895538,301.115234 
	C229.598404,306.419403 232.207458,311.877838 237.029266,313.947571 
	C242.580170,316.330292 248.747391,314.032288 251.391052,308.596069 
	C254.288620,302.637817 251.728348,296.740814 243.946884,293.070404 
z"/>
<path fill="#FBFCFA" opacity="1.000000" stroke="none" 
	d="
M408.847015,285.538452 
	C409.078705,286.252350 409.089539,287.217133 409.574158,287.643677 
	C423.691315,300.068939 418.534027,315.473114 404.485809,323.691864 
	C389.812988,332.276093 374.015137,333.573730 357.670868,330.324493 
	C348.904755,328.581848 340.789093,325.255737 334.177521,318.973877 
	C324.586517,309.861176 324.607758,297.902924 334.189117,288.818024 
	C335.147980,287.908844 336.116791,287.010071 337.588745,285.708618 
	C361.679993,285.386658 385.263519,285.462555 408.847015,285.538452 
M378.382172,313.121002 
	C382.884613,309.960724 384.387848,305.596832 382.853363,300.452179 
	C381.557373,296.107025 378.385162,293.454376 373.788086,292.988770 
	C368.839081,292.487518 364.948151,294.380646 362.687592,298.916260 
	C360.552368,303.200409 361.064789,307.333130 364.142548,311.016754 
	C367.408081,314.925171 371.704987,315.664093 378.382172,313.121002 
z"/>
<path fill="#050704" opacity="1.000000" stroke="none" 
	d="
M277.218384,285.413483 
	C261.166962,285.426147 245.584045,285.236420 230.000793,285.201477 
	C222.050751,285.183655 214.100113,285.443604 205.700623,285.574341 
	C201.458725,285.362122 197.665924,285.153534 193.489532,284.923828 
	C193.489532,279.000031 193.489532,273.099976 193.489532,266.766724 
	C225.651215,266.766724 257.935242,266.766724 290.545166,266.766724 
	C290.545166,272.691223 290.545166,278.568451 290.545166,285.275146 
	C286.194092,285.275146 281.940399,285.275146 277.218384,285.413483 
z"/>
<path fill="#050704" opacity="1.000000" stroke="none" 
	d="
M409.302216,285.403748 
	C385.263519,285.462555 361.679993,285.386658 337.647766,285.386841 
	C332.728210,285.462921 328.257416,285.462921 323.440002,285.462921 
	C323.440002,278.901306 323.440002,272.990875 323.440002,266.696167 
	C355.637024,266.696167 387.852264,266.696167 420.469330,266.696167 
	C420.469330,272.595642 420.469330,278.481445 420.469330,285.269043 
	C416.940430,285.269043 413.348907,285.269043 409.302216,285.403748 
z"/>
<path fill="#0E1608" opacity="1.000000" stroke="none" 
	d="
M368.268158,473.135010 
	C366.617767,473.946655 365.318085,474.604614 363.878143,475.333557 
	C364.707977,477.594604 365.718658,479.559113 366.085297,481.637268 
	C366.312592,482.925690 365.562408,484.386597 365.251007,485.770081 
	C364.148895,484.832703 362.709869,484.091614 362.022919,482.912354 
	C360.965332,481.096863 360.423615,478.980835 359.605530,476.841919 
	C357.648865,477.316345 356.072662,477.883270 354.454224,478.056976 
	C349.227722,478.617920 347.719543,481.110199 349.500885,486.125488 
	C349.904541,487.261993 348.545166,489.024658 347.997314,490.499115 
	C347.024933,489.239166 345.749359,488.105255 345.159515,486.686279 
	C344.475525,485.040710 344.393799,483.144806 343.934387,480.752258 
	C340.060211,481.131409 336.324921,481.496979 332.195343,481.901123 
	C332.195343,484.481262 332.439545,486.816071 332.091064,489.058746 
	C331.919769,490.160980 330.650269,491.092621 329.877716,492.101440 
	C329.200378,491.158569 328.070465,490.274841 327.937958,489.260773 
	C327.642670,487.001007 327.845764,484.676086 327.845764,482.229584 
	C322.529205,481.519745 317.706238,480.875793 312.883301,480.231873 
	C312.890839,479.628052 312.898346,479.024261 312.905853,478.420471 
	C317.738983,478.420471 322.572083,478.420471 327.928162,478.420471 
	C327.928162,475.473541 327.790222,473.334015 327.999481,471.228973 
	C328.077606,470.443085 328.965881,469.737732 329.484741,468.995667 
	C330.231293,469.708038 331.460327,470.322174 331.629395,471.152161 
	C332.051758,473.225861 331.992859,475.397614 332.171234,478.230865 
	C335.799561,477.958038 339.186493,477.703400 343.193756,477.402100 
	C342.973785,475.020660 342.607574,473.094696 342.686920,471.187256 
	C342.738495,469.946869 343.438965,468.733429 343.848694,467.507935 
	C344.663940,468.549652 345.735565,469.483032 346.232483,470.659241 
	C346.923370,472.294708 347.183533,474.112122 347.763214,476.380341 
	C351.299988,475.403046 354.594879,474.492584 358.429260,473.433075 
	C357.627075,470.935425 356.754456,468.804688 356.327576,466.588104 
	C356.166931,465.753845 357.039368,464.720612 357.440826,463.778107 
	C358.236450,464.247253 359.385376,464.526367 359.759644,465.222168 
	C360.769897,467.100311 361.450317,469.155884 362.529053,471.795532 
	C365.898438,470.307251 368.982574,468.944977 372.318085,467.471680 
	C370.999176,464.305176 369.835510,461.511475 368.582306,458.502747 
	C371.938904,458.455780 371.938904,458.455780 376.423981,464.882202 
	C379.239807,462.991211 382.067749,461.092072 385.273956,458.938873 
	C383.416779,456.274567 381.758087,453.895050 380.094330,451.508270 
	C382.623322,449.899658 382.623322,449.899658 388.858490,455.746796 
	C391.229553,453.298157 393.611206,450.838593 396.317047,448.044189 
	C394.934662,446.771637 393.347382,445.564362 392.106293,444.069702 
	C391.397888,443.216553 391.253754,441.894836 390.855560,440.784119 
	C392.150146,440.936249 393.631653,440.743042 394.696533,441.319458 
	C396.397522,442.240234 397.821716,443.672455 399.637817,445.105377 
	C401.849152,442.076263 403.881958,439.291656 406.146606,436.189484 
	C403.973755,434.728577 401.952393,433.587952 400.232025,432.099457 
	C399.592926,431.546539 399.659088,430.178436 399.403625,429.182068 
	C400.310455,429.081360 401.373566,428.627594 402.094604,428.946686 
	C404.189087,429.873657 406.146454,431.110443 408.475098,432.401733 
	C410.236694,428.992035 411.811798,425.943298 413.611725,422.459412 
	C411.113403,421.301544 408.952698,420.489075 407.016693,419.308258 
	C406.260559,418.847046 406.009521,417.557770 405.528412,416.645630 
	C406.538696,416.380676 407.641144,415.720642 408.540710,415.930450 
	C410.605652,416.411957 412.571777,417.317444 415.109589,418.245117 
	C416.870270,412.545563 418.557190,407.084778 420.244141,401.623962 
	C420.839386,401.792725 421.434662,401.961456 422.029907,402.130188 
	C423.094360,408.025543 419.482788,413.257416 418.713562,419.361938 
	C420.600830,420.169037 422.681396,420.753021 424.390900,421.893341 
	C425.605225,422.703308 426.319061,424.263641 427.256287,425.489044 
	C425.670990,425.675537 424.010284,426.245361 422.519379,425.952087 
	C420.631866,425.580750 418.882477,424.507355 416.801300,423.620789 
	C415.007446,427.202301 413.392181,430.427277 411.516083,434.173004 
	C413.642853,435.496674 415.858337,436.592133 417.689362,438.141815 
	C418.530304,438.853577 418.616882,440.456665 419.045532,441.655579 
	C417.880310,441.800476 416.499084,442.414581 415.592682,441.997284 
	C413.380005,440.978577 411.387054,439.482422 409.138367,438.073669 
	C406.799774,441.188141 404.619934,444.091187 402.170563,447.353210 
	C404.125519,449.059143 406.230713,450.617859 407.940369,452.530151 
	C408.590790,453.257629 408.332397,454.797546 408.488190,455.967194 
	C407.324402,455.926147 405.874878,456.310181 405.054230,455.758606 
	C403.143219,454.474121 401.535065,452.739075 399.424835,450.846344 
	C396.657959,453.413391 393.927155,455.946991 390.932648,458.725250 
	C392.743134,460.897797 394.564545,462.833038 396.042053,465.002533 
	C396.511444,465.691711 396.064972,467.004639 396.037628,468.032135 
	C394.891205,467.956360 393.326843,468.326843 392.678345,467.719421 
	C390.880493,466.035583 389.464203,463.944366 387.570099,461.611359 
	C384.419708,463.786102 381.361267,465.897339 378.122589,468.132996 
	C379.493225,470.498383 380.924103,472.554352 381.874268,474.812531 
	C382.250061,475.705627 381.556488,477.048676 381.349854,478.186829 
	C380.253571,477.809967 378.723724,477.759521 378.146088,476.992218 
	C376.674866,475.037994 375.629059,472.763519 374.287750,470.396088 
	C372.191162,471.352203 370.404999,472.166779 368.268158,473.135010 
z"/>
<path fill="#111B09" opacity="1.000000" stroke="none" 
	d="
M245.497192,206.759766 
	C246.573257,207.116714 247.863098,207.678024 248.059692,208.500610 
	C248.428833,210.045212 248.166031,211.740829 248.166031,213.335495 
	C252.414551,214.263107 256.366943,215.126068 260.319336,215.989014 
	C260.239258,216.629318 260.159180,217.269623 260.079102,217.909927 
	C256.248657,217.401657 252.418213,216.893372 248.331848,216.351135 
	C247.742310,218.505264 247.156311,220.646378 246.570328,222.787506 
	C246.161438,222.828491 245.752533,222.869492 245.343628,222.910492 
	C244.907974,220.894165 244.472321,218.877838 243.944153,216.433273 
	C241.886612,216.433273 239.675034,216.433273 237.088196,216.433273 
	C236.893814,218.589188 236.700180,220.736847 236.506531,222.884506 
	C236.067093,222.984146 235.627640,223.083801 235.188202,223.183441 
	C234.498123,221.262817 233.808044,219.342178 232.916519,216.860916 
	C230.707596,217.286835 228.365173,217.738495 225.909592,218.211975 
	C226.247040,220.705811 226.522049,222.738113 226.797058,224.770416 
	C226.368225,224.949417 225.939392,225.128418 225.510559,225.307419 
	C224.446625,223.375870 223.382706,221.444321 222.155716,219.216751 
	C220.104965,220.043930 217.992050,220.896210 215.654343,221.839142 
	C216.289307,224.271988 216.829971,226.343430 217.370621,228.414886 
	C216.937897,228.623718 216.505173,228.832550 216.072449,229.041382 
	C214.831116,227.309586 213.589767,225.577789 212.082092,223.474411 
	C210.075470,224.658203 208.127899,225.807159 206.006729,227.058533 
	C207.064819,229.369476 207.979828,231.367935 208.894852,233.366394 
	C208.288544,233.815796 207.682236,234.265198 207.075928,234.714615 
	C206.015091,232.919968 204.954239,231.125320 203.637436,228.897659 
	C201.149216,230.864044 199.286728,232.335938 197.400879,233.826279 
	C198.878571,235.946777 200.026993,237.594772 201.175430,239.242767 
	C200.871399,239.595169 200.567368,239.947556 200.263336,240.299957 
	C198.480682,239.187866 196.698013,238.075760 194.506699,236.708725 
	C192.966644,238.525940 191.411163,240.361328 189.868668,242.181412 
	C191.682037,243.916138 193.179962,245.349106 194.677887,246.782059 
	C194.468567,247.180710 194.259232,247.579376 194.049911,247.978027 
	C192.023804,247.143219 189.997696,246.308426 187.577011,245.311050 
	C186.392242,247.329865 185.166702,249.418198 183.879990,251.610748 
	C185.888184,253.039337 187.626801,254.276138 189.365402,255.512955 
	C189.138733,256.010345 188.912064,256.507721 188.685394,257.005096 
	C186.656006,256.407867 184.626617,255.810654 182.244614,255.109665 
	C180.981140,258.185455 179.705902,261.289856 178.430649,264.394287 
	C177.891754,264.235779 177.352859,264.077271 176.813950,263.918762 
	C177.646637,260.629395 178.479324,257.340027 179.390915,253.738968 
	C177.961578,252.961594 176.427719,252.333527 175.168015,251.353180 
	C174.560089,250.880051 174.468079,249.743988 174.142456,248.908112 
	C175.010071,248.753326 175.969772,248.286224 176.726028,248.509201 
	C178.273926,248.965561 179.712540,249.792511 181.399475,250.559265 
	C182.842590,248.131393 184.105087,246.007385 185.475388,243.702011 
	C183.508026,242.022903 181.691101,240.472198 179.874191,238.921478 
	C180.171219,238.332382 180.468262,237.743271 180.765305,237.154160 
	C182.955856,238.092133 185.146408,239.030090 187.966995,240.237823 
	C189.368652,238.623154 191.064667,236.669373 192.657700,234.834229 
	C191.036545,232.606323 189.568802,230.589218 188.101059,228.572128 
	C188.628174,228.116791 189.155304,227.661453 189.682419,227.206116 
	C191.488358,228.684708 193.294296,230.163300 195.478745,231.951797 
	C197.326721,230.404495 199.287323,228.762894 201.403717,226.990845 
	C200.039413,224.793655 198.869629,222.909775 197.699860,221.025894 
	C198.149765,220.563995 198.599655,220.102097 199.049561,219.640198 
	C200.800049,221.197647 202.550537,222.755112 204.703003,224.670212 
	C206.396408,223.704330 208.501694,222.503494 210.770142,221.209595 
	C210.047546,218.699631 209.340927,216.245087 208.634293,213.790543 
	C209.165298,213.539261 209.696289,213.287979 210.227280,213.036697 
	C211.609695,214.999924 212.992126,216.963135 214.561951,219.192490 
	C216.789948,218.408142 219.093094,217.597351 221.641052,216.700378 
	C221.078674,214.304199 220.539429,212.006546 220.000168,209.708893 
	C220.559540,209.395508 221.118927,209.082123 221.678299,208.768738 
	C222.899445,210.925293 224.120605,213.081833 225.513382,215.541473 
	C227.679428,215.077637 230.067200,214.566315 232.903854,213.958878 
	C232.741348,212.390839 232.350037,210.936478 232.525955,209.554321 
	C232.658936,208.509705 233.516708,207.557343 234.051880,206.563919 
	C234.652786,207.416611 235.492157,208.193130 235.794983,209.141052 
	C236.183884,210.358459 236.141830,211.713562 236.308289,213.215485 
	C239.139511,213.215485 241.698120,213.215485 244.515274,213.215485 
	C244.771667,210.976151 244.994598,209.029099 245.497192,206.759766 
z"/>
<path fill="#079247" opacity="1.000000" stroke="none" 
	d="
M165.869080,363.028442 
	C156.652054,362.904633 150.116653,357.998474 149.116180,350.796967 
	C147.917160,342.166382 151.893845,335.260284 159.555878,332.666901 
	C164.325974,331.052338 165.446716,331.853790 166.004578,336.683624 
	C166.801514,343.583130 167.958252,350.443207 168.653091,357.351105 
	C168.856827,359.376465 170.678314,362.646545 165.869080,363.028442 
z"/>
<path fill="#101B08" opacity="1.000000" stroke="none" 
	d="
M368.930786,418.582123 
	C326.667908,418.615967 284.405060,418.649780 241.639374,418.502319 
	C241.136581,418.320984 240.969376,418.020630 240.970764,417.804749 
	C240.972137,417.588837 240.953125,417.157501 241.396271,417.088287 
	C244.957001,416.802094 248.074554,416.585114 251.192123,416.368103 
	C266.466675,416.250916 281.742004,415.979126 297.015625,416.053528 
	C318.776276,416.159515 340.535736,416.519531 363.157776,416.805298 
	C367.021759,416.948669 370.023682,417.057709 372.786743,417.381531 
	C371.342194,417.924927 370.136475,418.253540 368.930786,418.582123 
z"/>
<path fill="#FBFDFA" opacity="1.000000" stroke="none" 
	d="
M251.098083,415.877502 
	C248.074554,416.585114 244.957001,416.802094 241.009384,417.001312 
	C239.116776,417.049622 238.054199,417.115692 236.584747,417.115112 
	C234.802048,416.982697 233.426239,416.916962 232.050415,416.851196 
	C232.045731,412.560699 232.161621,408.265503 231.993896,403.981384 
	C231.882416,401.133820 232.604019,399.708588 235.819458,399.858887 
	C240.575424,400.081146 245.349487,399.916321 251.004044,399.916321 
	C251.004044,405.305725 251.004044,410.346313 251.098083,415.877502 
z"/>
<path fill="#FAFDF8" opacity="1.000000" stroke="none" 
	d="
M373.025574,417.166748 
	C370.023682,417.057709 367.021759,416.948669 363.576660,416.763336 
	C363.087219,412.231018 362.835815,407.761414 363.129913,403.327972 
	C363.209717,402.124786 364.874176,400.113342 365.918121,400.042328 
	C370.984894,399.697693 376.087921,399.886780 381.944000,399.886780 
	C381.944000,405.521576 381.944000,410.738831 381.513062,416.488892 
	C378.396606,417.070038 375.711090,417.118408 373.025574,417.166748 
z"/>
<path fill="#435D24" opacity="1.000000" stroke="none" 
	d="
M372.786743,417.381531 
	C375.711090,417.118408 378.396606,417.070038 381.530365,416.948975 
	C386.232208,417.298096 390.485809,417.719879 394.739410,418.141693 
	C394.733154,418.387268 394.726898,418.632812 394.720642,418.878387 
	C386.426392,418.878387 378.132111,418.878387 369.384338,418.730255 
	C370.136475,418.253540 371.342194,417.924927 372.786743,417.381531 
z"/>
<path fill="#517423" opacity="1.000000" stroke="none" 
	d="
M231.596893,416.902252 
	C233.426239,416.916962 234.802048,416.982697 236.837677,417.358917 
	C238.654785,417.786438 239.812073,417.903534 240.969376,418.020630 
	C240.969376,418.020630 241.136581,418.320984 241.187012,418.484558 
	C233.508698,418.648102 225.779953,418.648102 218.051208,418.648102 
	C218.033081,418.417206 218.014969,418.186310 217.996841,417.955414 
	C222.379013,417.621368 226.761200,417.287323 231.596893,416.902252 
z"/>
<path fill="#8BC441" opacity="1.000000" stroke="none" 
	d="
M441.449860,362.532166 
	C441.416809,362.476776 441.482910,362.587524 441.449860,362.532166 
z"/>
<path fill="#8BC441" opacity="1.000000" stroke="none" 
	d="
M441.449646,379.532410 
	C441.416565,379.476868 441.482758,379.587982 441.449646,379.532410 
z"/>
<path fill="#079246" opacity="1.000000" stroke="none" 
	d="
M446.005310,363.078369 
	C445.964020,358.929504 445.628052,354.756989 445.958740,350.637970 
	C446.340576,345.881897 447.469482,341.189941 447.974976,336.438324 
	C448.395081,332.489227 450.068329,331.257568 453.926178,332.447235 
	C461.279053,334.714539 465.834473,341.727386 464.924744,349.762787 
	C464.082458,357.202576 457.531982,362.655792 448.136047,363.105164 
	C446.927277,363.088593 446.466278,363.083496 446.005310,363.078369 
z"/>
<path fill="#8DC541" opacity="1.000000" stroke="none" 
	d="
M446.043640,363.371704 
	C446.466278,363.083496 446.927277,363.088593 447.725159,363.180908 
	C447.997528,363.805176 447.932983,364.342255 447.868439,364.879364 
	C447.272949,364.474579 446.677460,364.069824 446.043640,363.371704 
z"/>
<path fill="#8DC541" opacity="1.000000" stroke="none" 
	d="
M452.639832,280.105286 
	C452.363403,279.833221 452.249451,279.428802 452.192596,279.016541 
	C452.182800,278.945496 452.415527,278.841003 452.536194,278.751953 
	C452.631348,279.158051 452.726501,279.564178 452.639832,280.105286 
z"/>
<path fill="#080808" opacity="1.000000" stroke="none" 
	d="
M244.338867,293.163025 
	C251.728348,296.740814 254.288620,302.637817 251.391052,308.596069 
	C248.747391,314.032288 242.580170,316.330292 237.029266,313.947571 
	C232.207458,311.877838 229.598404,306.419403 230.895538,301.115234 
	C232.271423,295.489014 236.771210,292.715332 244.338867,293.163025 
z"/>
<path fill="#090909" opacity="1.000000" stroke="none" 
	d="
M378.051880,313.317627 
	C371.704987,315.664093 367.408081,314.925171 364.142548,311.016754 
	C361.064789,307.333130 360.552368,303.200409 362.687592,298.916260 
	C364.948151,294.380646 368.839081,292.487518 373.788086,292.988770 
	C378.385162,293.454376 381.557373,296.107025 382.853363,300.452179 
	C384.387848,305.596832 382.884613,309.960724 378.051880,313.317627 
z"/>
<path fill="#435D24" opacity="1.000000" stroke="none" 
	d="
M240.970764,417.804749 
	C239.812073,417.903534 238.654785,417.786438 237.244568,417.425568 
	C238.054199,417.115692 239.116776,417.049622 240.566223,417.070526 
	C240.953125,417.157501 240.972137,417.588837 240.970764,417.804749 
z"/>
</svg>